<?xml version="1.0" encoding="utf-8"?>
<!-- Generator: Adobe Illustrator 16.0.0, SVG Export Plug-In . SVG Version: 6.00 Build 0)  -->
<!DOCTYPE svg PUBLIC "-//W3C//DTD SVG 1.1//EN" "http://www.w3.org/Graphics/SVG/1.1/DTD/svg11.dtd">
<svg version="1.1" id="Layer_1" xmlns="http://www.w3.org/2000/svg" xmlns:xlink="http://www.w3.org/1999/xlink" x="0px" y="0px"
	 width="1000px" height="445.101px" viewBox="0 0 1000 445.101" enable-background="new 0 0 1000 445.101" xml:space="preserve">
<g>
	<path fill-rule="evenodd" clip-rule="evenodd" fill="#0089CF" d="M712.191,357.283c11.055-23.313,20.181-47.374,27.246-72.191
		c1.85-6.503,3.506-13.062,5.093-19.626c0.679-2.795,1.294-5.61,1.91-8.414c0.446-1.998,0.881-3.995,1.319-5.998
		c0.294-1.346,3.327-0.628,4.509-0.628c10.603,0,21.217,0.036,31.841,0.053c11.439,0.029,22.894-0.017,34.332,0.07
		c10.394,0.082,20.234,1.078,28.082,8.635c16.675,16.072,6.376,38.918-0.862,57.065c-6.524,16.332-15.934,28.538-32.155,36.146
		c5.492,3.958,9.908,9.436,13.484,15.149c12.699-21.763,22.435-45.05,29.631-69.2c3.774-12.677,6.897-25.537,9.453-38.514
		c0.347-1.74,0.482-8.198,1.771-9.199c0.4-0.318,2.351,0.005,2.844,0.005c6.077,0.011,12.175,0.017,18.252,0.032
		c31.33,0.053,62.649,0.113,93.977,0.165c-4.77,15.526-9.931,30.786-16.213,45.779c-1.42,3.414-5.935,2.026-9.384,2.084
		c-7.385,0.121-14.76,0.236-22.141,0.357c-5.93,0.089-11.871-0.252-17.81-0.174c-3.308,0.063-3.113,5.331-3.98,8.211
		c11.497-0.184,23.004-0.367,34.5-0.546c-4.22,10.949-8.511,21.737-14.267,31.993c-0.819,1.492-2.523,5.913-3.942,5.966
		c-5.178,0.173-10.372,0.347-15.565,0.531c-5.304,0.178-10.624,0.357-15.934,0.546c-2.67,0.085-3.875,4.264-5.241,6.383
		c15.203-0.521,30.41-1.042,45.608-1.567c-5.619,8.195-11.149,16.465-17.17,24.371c-2.512,3.316-10.339,13.457-10.339,13.457
		l-7.858,0.625c0,0-55.523,3.564-83.289,5.341c-19.056,1.23-38.117,2.45-57.167,3.681c3.7-6.508,8.473-13.273,9.798-20.844
		c0.721-4.104-1.12-12.979-6.582-12.343c-1.345,0.163-3.837-0.084-4.488,1.167c-1.268,2.355-2.544,4.685-3.849,7.013
		c-2.549,4.553-5.194,9.057-7.942,13.484c-1.167,1.881-6.571,12.789-8.459,12.91c-6.533,0.421-13.078,0.842-19.624,1.257
		c-11.459,0.741-22.914,1.472-34.374,2.207C696.006,387.799,704.595,372.864,712.191,357.283 M196.132,375.829l-5.836,0.526
		c0,0-8.174-0.727-9.619,0.43c-0.979,0.779-1.524,4.479-1.95,5.71c5.545-0.39,11.097-0.784,16.637-1.21
		c-2.238,6.388-4.205,12.858-6.544,19.209c-0.584,1.593-1.23,3.154-1.819,4.736c-0.563,1.492-6.687,1.245-8.237,1.361
		c-1.997,0.137-7.822-0.505-9.409,0.71c-1.272,0.973-2.183,5.177-2.839,6.708c5.804-0.169,11.606-0.332,17.405-0.495
		c-1.072,2.387-8.096,22.063-11.239,22.263c-14.855,0.979-29.728,1.956-44.583,2.934c9.946-20.181,18.72-40.635,26.3-61.836
		c1.478-4.126,2.918-8.269,4.343-12.411c0.757-2.203,1.508-4.421,2.255-6.623c1.125-3.359,0.604-4.947,4.095-5.025
		c12.322-0.301,27.793-0.589,40.114-0.884C203.912,358.287,197.692,369.552,196.132,375.829 M171.54,56.414
		c6.376,16.159,15.607,37.723,1.804,52.552c20.774,12.645,26.678,37.788,30.799,60.193c2.192,11.88,3.863,24.234,2.765,36.324
		c-1.188,13.082-7.254,22.383-19.339,27.937c-19.125,8.797-40.398,7.283-60.879,7.252c-19.571-0.04-39.132-0.076-58.708-0.103
		c-5.804-0.011-11.603-0.026-17.416-0.037c-3.585-0.005-2.16-11.294-2.329-14.341c-2.854-52.278-8.621-105.043-22.025-155.755
		C19.739,45.965,10.651,22.92,0,0c31.021,2.959,62.035,5.938,93.062,8.908c20.007,1.916,42.302,3.729,59.254,15.676
		C163.082,32.18,166.872,44.625,171.54,56.414 M87.878,369.663c-0.973,3.737-2.145,7.401-3.317,11.07
		c-1.009,3.148-12.853-2.213-14.351,2.96c-2.729,9.409-5.977,18.661-9.678,27.725c-3.774,9.209-8.012,18.209-12.517,27.089
		c-0.678,1.334-1.986,5.587-3.433,5.676c-3.664,0.247-7.322,0.484-10.976,0.73c-5.21,0.337-10.457,0.116-15.665,0.116
		c10.444-20.144,20.433-40.435,26.931-62.272c-5.805,0.264-11.597,0.521-17.396,0.773c2.607-7.175,5.22-14.346,7.822-21.516
		c0.184-0.506,1.824-6.178,2.287-6.188c2.155-0.058,4.311-0.1,6.465-0.146c15.519-0.379,31.053-0.742,46.57-1.11
		C89.839,359.639,89.15,364.689,87.878,369.663 M91.946,364.322c0.705-2.744,1.367-5.499,2.02-8.259
		c0.599-2.454,2.171-1.624,4.609-1.677c7.118-0.179,14.225-0.342,21.333-0.504c-2.671,11.249-5.521,22.371-9.315,33.312
		c2.901-0.21,7.559,0.131,7.559,0.131s1.698-6.528,2.335-8.369c1.524-4.373,3.001-8.763,4.415-13.178
		c1.067-3.327,2.034-12.069,5.488-12.144c7.97-0.194,15.929-0.384,23.893-0.573c-5.535,20.113-11.901,39.773-19.845,59.065
		c-3.07,7.448-6.34,14.819-9.746,22.115c-0.594,1.262-1.361,4.773-2.896,4.879c-2.902,0.188-5.814,0.379-8.716,0.573
		c-5.961,0.389-11.917,0.788-17.884,1.172c4.337-9.714,8.668-19.435,12.748-29.265c-2.786,0.199-5.893-0.326-7.602,1.572
		c-1.251,1.387-1.924,4.332-2.718,6.05c-1.866,4.043-3.753,8.06-5.729,12.043c-0.999,2.003-1.982,4.007-2.997,5.993
		c-1.803,3.564-1.514,4.116-5.267,4.364c-8.007,0.525-16.013,1.057-24.013,1.582C72.481,417.726,84.74,392.052,91.946,364.322
		 M200.889,254.318c8.153,7.67,5.678,17.946,3.896,27.667c-1.456,7.908-3.191,15.772-5.151,23.565
		c-4.39,17.432-8.243,42.349-30.29,44.636c-12.916,1.341-27.041,0.715-39.994,0.021c-13.263-0.694-16.706-13.727-13.531-24.455
		c4.585-15.513,8.843-31.07,11.729-47.003c1.046-5.791,1.356-12.047,4.227-17.28c3.569-6.513,10.556-11.696,18.136-12.071
		c10.188-0.513,20.471-0.076,30.674-0.076C187.957,249.322,195.012,249.009,200.889,254.318 M152.559,300.137
		c-1.452,6.087-3.055,12.138-4.743,18.167h10.141c1.945,0,5.331,0.716,7.171-0.11c2.996-1.34,3.191-6.429,3.942-9.194
		c2.477-9.141,4.59-18.391,6.403-27.692h-15.271c-1.724,0-2.598-0.289-3.732,0.965c-1.288,1.432-1.309,6.118-1.714,8.014
		C154.071,293.592,153.325,296.864,152.559,300.137 M127.714,271.813c-0.194,1.728-1.167,11.733-1.556,11.733
		c-3.012,0-18.373-1.561-19.004,0.954c-2.254,8.908-4.688,17.792-7.479,26.549c-2.845,8.922-6.024,17.737-9.315,26.511
		c-0.757,2.019-3.99,13.037-5.515,13.037H59.549h-7.111c8.494-22.084,16.568-44.12,22.515-67.051H49.793
		c0.772-6.158,1.566-12.316,2.202-18.501c0.227-2.321,0.442-4.649,0.642-6.97c0.252-2.897-1.099-8.898,2.339-8.898h74.784
		C129.181,256.734,128.556,264.275,127.714,271.813 M484.377,389.681c11.808-26.899,20.938-54.849,26.231-83.777
		c-10.345,0.184-20.696,0.357-31.063,0.537c3.795-11.343,7.412-22.638,9.836-34.365c1.104-5.296,1.966-10.658,2.618-16.03
		c0.809-6.481,0.021-6.087,5.924-6.076c34.689,0.063,69.363,0.123,104.048,0.187c3.218,0.005,6.419,0.011,9.63,0.019
		c-1.934,11.7-3.941,23.339-7.223,34.749c-1.682,5.896-3.717,11.649-5.913,17.374c-1.188,3.112-2.882,2.145-6.172,2.197
		c-5.035,0.085-10.066,0.179-15.108,0.269c-3.568,0.052-4.115-0.73-5.051,2.786c-0.904,3.296-1.804,6.603-2.749,9.889
		c-1.688,5.887-3.544,11.732-5.463,17.552c-3.848,11.701-8.337,23.198-13.236,34.505c-3.19,7.37-6.649,14.646-10.319,21.784
		c-2.045,3.965-4.152,7.886-6.313,11.791c-0.836,1.498-4.559,9.788-5.809,9.867c-18.91,1.215-37.823,2.429-56.743,3.644
		C475.898,407.654,480.298,398.754,484.377,389.681 M224.844,302.297c1.893-12.571,3.449-25.167,4.474-37.833
		c0.215-2.6,0.252-14.977,1.714-14.977c4.631,0.014,9.257,0.019,13.898,0.023c33.287,0.063,66.583,0.124,99.869,0.182h1.372
		c-1.188,10.221-2.454,20.418-4.269,30.55c-0.883,4.844-1.84,9.678-2.918,14.485c-0.752,3.38-0.661,10.834-4.483,10.98
		c-14.478,0.569-28.97,1.131-43.459,1.688c-3.7,0.148-2.833,2.649-3.38,6.057c-0.53,3.322-1.114,6.639-1.771,9.94
		c15.254-0.221,30.536-0.442,45.797-0.657c-3.731,10.949-7.538,21.836-12.032,32.514c-2.129,5.057-4.405,10.066-6.777,15.019
		c-1.34,2.791-1.051,3.627-3.915,3.821c-4.06,0.273-8.102,0.547-12.16,0.82c-8.694,0.589-17.39,1.178-26.089,1.762
		c-3.264,0.22-5.131,8.541-6.435,11.522c-4.2,9.583-8.716,19.04-13.432,28.381c-0.919,1.804-6.146,14.582-7.606,14.672
		c-5.95,0.385-11.906,0.768-17.856,1.157c-15.613,0.993-31.21,2.002-46.817,2.995c11.191-20.475,21.479-41.055,29.122-63.164
		C215.555,349.477,220.948,326.042,224.844,302.297 M666.336,279.112c-2.917,12.697-6.556,25.198-10.87,37.51
		c-4.28,12.195-10.398,23.944-14.362,36.203c-1.419,4.427-2.071,9.121,3.917,7.027c4.962-1.734,8.678-7.831,11.323-12.031
		c6.561-10.42,11.08-22.169,14.991-33.786c6.241-18.479,10.624-37.583,13.505-56.865c0.758-5.018-0.525-6.867,4.39-6.857
		c6.277,0.011,12.569,0.021,18.845,0.037c10.672,0.016,21.354,0.036,32.02,0.056c-1.95,23.345-7.012,45.189-15.791,66.941
		c-9.063,22.462-19.407,46.286-34.668,65.296c-7.233,9.005-16.381,16.694-27.677,19.896c-10.682,3.027-21.922,3.212-32.93,3.927
		c-9.163,0.589-18.319,1.172-27.481,1.767c-4.49,0.284-9.084,0.672-13.506-0.368c-13.94-3.255-16.3-16.317-12.474-28.502
		c3.927-12.501,10.15-24.439,14.776-36.714c4.505-11.948,8.647-24.034,12.148-36.31c3.448-12.113,6.372-24.396,8.485-36.815
		c0.53-3.181,1.029-6.363,1.514-9.565c0.267-1.843,0.031-8.741,1.309-9.779c0.61-0.497,3.742,0.005,4.484,0.005
		c4.101,0.016,8.185,0.021,12.279,0.021c13.583,0.026,27.146,0.047,40.719,0.076C669.899,259.954,668.406,269.555,666.336,279.112
		 M349.235,249.697c20.275,0.04,40.556,0.076,60.837,0.113c-3.285,23.396-7.176,46.639-13.52,69.429
		c-3.139,11.287-6.776,22.431-11.04,33.344c-1.793,4.573-6.739,12.081-5.594,17.132c0.899,3.985,6.166,2.835,9.12,0.899
		c9.631-6.24,15.192-20.323,19.23-30.532c4.773-12.026,8.6-24.333,11.927-36.833c3.276-12.265,5.847-24.757,7.938-37.284
		c0.405-2.433,1.661-16.114,3.044-16.114c7.354,0.01,14.719,0.031,22.073,0.042c10.435,0.015,20.886,0.036,31.33,0.047
		c-3.9,49.24-17.558,98.543-39.956,142.701c-5.604,11.033-12.958,21.579-25.213,25.621c-9.919,3.27-21.042,3.022-31.388,3.685
		c-17.342,1.115-34.689,2.225-52.036,3.338c-8.995,0.584-19.751,0.694-25.207-7.826c-6.682-10.42,1.908-25.285,5.993-35.163
		c4.641-11.155,8.684-22.573,12.279-34.106c7.17-23.04,12.348-46.644,16.223-70.446C346.786,268.42,348.016,259.06,349.235,249.697
		 M799.244,128.555c21.269,24.208,35.336,50.168,53.057,77.041c-17.416-0.263-30.321-0.518-47.743-0.781
		c9.805,15.158,19.135,30.597,28.613,45.966c-40.683-31.265-81.312-62.512-125.721-88.399c-8.38-4.878-16.822-9.657-25.412-14.135
		c-4.39-2.29-8.773-4.529-13.189-6.734c-4.205-2.105-4.157-1.487-2.938-5.659c6.229-21.25,12.442-42.514,18.673-63.778
		c7.097,5.885,14.214,11.746,21.137,17.841c1.693,1.485,6.588,7.546,8.68,7.696c5.745,0.426,11.491,0.852,17.247,1.264
		c9.115,0.681,18.23,1.346,27.352,2.019c4.079,0.297,11.37-0.618,15.16,1.109c2.298,1.051,4.937,4.976,6.781,6.853
		c1.956,1.997,3.911,4.027,5.825,6.069C790.99,119.403,795.148,123.958,799.244,128.555 M859.191,205.633
		c-20.653-36.824-44.725-70.273-71.717-102.647c6.943,0.513,13.904,1.022,20.849,1.535c4.383,0.329,8.783,0.647,13.168,0.967
		c1.818,0.142,4.567-0.31,5.887,1.062c8.411,8.731,16.391,17.784,23.887,27.317c14.346,18.243,26.673,38.07,37.876,58.369
		c2.575,4.639,5.094,9.313,7.638,13.957C884.246,206.001,871.719,205.822,859.191,205.633 M901.945,206.237
		c-7.559-18.212-19.107-35.512-29.952-51.995c-11.33-17.198-24.871-32.508-38.496-47.866c7.118,0.523,14.235,1.046,21.349,1.572
		c4.073,0.292,8.141,0.594,12.226,0.894c3.28,0.236,3.429,0.61,5.831,3.154c7.69,8.145,14.935,16.708,21.716,25.608
		c16.38,21.451,29.78,44.672,42.701,68.278c0.173,0.311-0.111,0.618,0.063,0.925c-12.857-0.194-25.285-0.383-38.139-0.57
		 M941.691,206.845c-7.344-17.65-17.246-34.487-27.723-50.502c-10.961-16.735-23.977-31.732-37.107-46.777
		c6.554,0.478,13.078,0.967,19.623,1.443c3.669,0.269,7.344,0.536,11.008,0.812c3.148,0.231,3.416,1.125,5.666,3.667
		c7.985,8.96,15.182,18.641,21.653,28.744c12.748,19.9,22.352,41.4,31.788,63.008C957.842,207.11,950.445,206.979,941.691,206.845
		 M975.888,207.394c-7.113-17.146-13.968-33.51-24.002-49.146c-10.482-16.349-23.015-31.039-35.594-45.787
		c6.533,0.479,13.068,0.962,19.607,1.448c2.592,0.181,5.179,0.376,7.771,0.557c1.34,0.108,4.684,5.057,5.756,6.261
		c7.648,8.571,14.671,17.7,21.1,27.223c12.602,18.661,21.537,38.811,29.475,59.788C992.426,207.625,983.483,207.512,975.888,207.394
		 M447.354,135.212c4.747,10.79,9.268,21.732,14.735,32.19c1.724,3.291,3.984,8.987,7.591,10.579
		c3.685,1.619,7.722,2.276,11.707,2.708c11.349,1.196,22.903,0.77,34.285,0.791c6.092,0.016,12.2,0.053,18.287,0.145
		c2.408,0.044,15.077,1.832,16.344,0.42c-6.266-23.274-14.177-46.357-25.091-67.874c-10.798-21.285-23.271-41.676-36.372-61.604
		c-1.34-2.045-2.68-4.095-4.031-6.135c14.009,1.34,27.997,2.686,42.006,4.026c7.797,0.747,15.607,1.49,23.426,2.24
		c5.093,0.494,6.202,3.251,9.388,7.325c12.89,16.483,24.334,34.143,34.117,52.644c5.835-17.829,10.734-35.915,15.245-54.129
		c0.277-1.115,29.559,2.621,31.893,2.846c11.448,1.094,22.894,2.192,34.338,3.289c-5.847,25.613-12.103,51.106-20.014,76.181
		c-1.035,3.277,3.145,3.669,5.94,4.91c2.755,1.233,5.493,2.502,8.227,3.816c5.557,2.668,11.056,5.441,16.502,8.322
		c10.85,5.78,21.517,11.964,31.903,18.543c31.282,19.806,60.384,42.428,89.35,65.447c-30.716-0.055-61.432-0.107-92.146-0.162
		c-3.689-0.017-7.438,0.77-10.551-1.254c-5.372-3.493-10.755-6.997-16.101-10.519c-10.183-6.684-20.35-13.371-30.646-19.869
		c-10.472-6.6-21.075-13.068-32.094-18.722c4.888,16.575,8.831,33.335,12.47,50.223c-59.224-0.113-118.447-0.221-177.686-0.323
		c-7.959-0.016-15.565,0.555-23.377-1.706c-11.775-3.401-21.869-10.54-29.112-20.417c-7.859-10.719-11.213-23.335-15.182-35.796
		c-3.712-11.607-7.585-23.138-11.576-34.645c-7.832-22.565-16.7-44.744-25.559-66.756c-4.146-10.312-7.338-23.577-1.939-33.999
		c6.099-11.82,19.745-12.203,31.352-11.076c24.466,2.347,48.931,4.681,73.4,7.028c2.361,0.221,4.721,0.462,7.076,0.678
		c3.307,0.287,3.975,0.759,5.925,3.307c2.202,2.857,4.357,5.743,6.439,8.692c6.565,9.265,11.98,19.077,17.211,29.133
		c3.027,5.783,5.924,11.618,8.837,17.458c-20.57-0.78-41.587-3.004-62.156-2.368c-5.914,0.182-7.922,2.712-5.914,8.656
		C438.765,118.262,443.601,126.694,447.354,135.212 M325.443,51.191c26.153,43.931,46.517,90.601,61.446,139.489
		c5.094,16.677,9.583,33.504,13.489,50.48c-14.756-0.026-29.512-0.052-44.252-0.073c-6.245-0.013-12.484-0.023-18.729-0.04
		c-0.758,0-3.002-9.025-3.433-10.447c-3.412-11.217-6.86-22.425-10.346-33.627c-0.951-3.046-0.505-3.364-3.48-3.427
		c-4.357-0.087-8.721-0.179-13.073-0.276c-7.229-0.149-14.456-0.296-21.674-0.452c3.274,15.917,5.678,31.938,6.834,48.15
		c-15.124-0.032-30.236-0.053-45.366-0.085c-6.745-0.011-13.488-0.028-20.244-0.039c-1.439,0-1.84-10.782-2.05-12.672
		c-2.729-24.076-5.982-48.196-10.893-71.947c-4.684-22.701-11.406-44.927-18.551-66.958c-3.933-12.122-8.026-24.191-11.917-36.314
		c-4.09-12.737-1.551-24.018,11.906-29.196c9.263-3.569,19.976-3.178,29.686-2.229c12.464,1.218,24.934,2.39,37.402,3.585
		c15.813,1.506,31.63,3.025,47.446,4.547c3.597,0.339,4.868,4.092,6.74,6.981C319.497,41.426,322.499,46.299,325.443,51.191
		 M271.787,79.446c-4.946-0.165-10.004-0.499-14.95-0.215c-4.368,0.252-7.028,0.825-5.624,5.62
		c2.039,6.973,5.661,13.723,8.168,20.554c3.67,9.99,7.066,20.083,10.361,30.198c0.92,2.793,1.146,2.271,3.994,2.399
		c3.828,0.174,7.639,0.35,11.467,0.528c6.544,0.297,13.072,0.597,19.618,0.899c-4.61-12.508-9.678-24.854-14.972-37.084
		c-2.481-5.711-5.021-11.389-7.628-17.032c-1.209-2.642-1.535-4.654-4.005-5.532C276.44,79.157,273.653,79.522,271.787,79.446
		 M118.247,68.443c-6.871-14.319-21.254-12.025-34.743-13.016c2.429,6.708,4.148,13.523,5.783,20.449
		c0.83,3.517,1.682,7.037,2.544,10.535c1.22,4.93,1.109,4.607,6.397,4.607h18.751c1.624,0,3.133-0.549,4.153-1.861
		C125.012,84.135,120.533,73.293,118.247,68.443 M131.073,138.175c-7.075-2.644-16.911-1.186-24.423-1.525
		c1.966,7.462,3.754,14.961,5.262,22.528c0.426,2.116,0.852,4.237,1.246,6.374c0.599,3.107,0.216,3.107,3.333,3.107h20.407
		c1.892,0,3.947,0.473,5.141-1.356c1.977-3.004-1.141-10.676-1.977-13.723C138.638,148.31,136.813,140.446,131.073,138.175
		 M783.983,318.709c5.015-0.505,8.189-4.811,10.298-8.979c1.262-2.502,2.365-5.256,3.044-7.984c0.189-0.778-2.954-0.982-3.554-1.046
		c-1.756-0.18-3.56-0.11-5.325,0.011c-0.867,0.063-1.755,4.668-2.061,5.624c-1.314,4.195-2.708,8.38-4.18,12.532
		C782.759,318.824,783.447,318.866,783.983,318.709"/>
	<path fill="none" d="M42.07,362.129c-1.761,4.864-3.532,9.727-5.304,14.589c5.557-0.242,11.097-0.489,16.627-0.727
		c-5.594,21.833-14.509,42.696-24.912,62.646c2.229,0,4.41-0.084,6.64-0.236c5.193-0.332,5.63,0.319,8.122-4.621
		c5.977-11.838,11.38-23.977,15.849-36.456c2.324-6.481,4.385-13.031,6.15-19.682c0.715-2.702,2.481-2.597,4.836-2.502
		c0.658,0.016,1.341,0.052,2.077,0.016c0.421-0.016,1.203,0.036,2.113,0.084c2.039,0.105,4.73,0.211,5.472-0.41
		c1.42-4.442,2.724-9.042,3.396-13.673C69.459,361.489,55.76,361.813,42.07,362.129"/>
	<path fill="none" d="M133.565,359.954c-1.383,0.042-8.643,25.689-9.678,28.522c-1.109,3.044-0.673,4.27-3.648,4.484
		c-2.429,0.152-4.848,0.321-7.271,0.499c-3.932,0.269-7.843,0.531-11.76,0.794c4.222-11.013,7.828-22.288,10.551-33.764
		c-3.9,0.084-7.822,0.178-11.744,0.278c-1.545,0.031-6.528,21.105-7.49,23.945c-5.993,17.688-13.704,34.73-22.137,51.385
		c4.116-0.279,8.232-0.563,12.349-0.825c3.496-6.866,6.876-13.831,10.051-20.865c1.903-4.189,6.561-8.604,6.561-8.604
		s12.274-0.868,18.409-1.305c-3.932,9.847-8.08,19.614-12.391,29.296c3.627-0.23,7.239-0.488,10.846-0.714
		c4.846-0.315,8.185-13.652,9.998-17.904c7.728-18.058,14.445-36.551,19.613-55.502C141.744,359.78,137.659,359.88,133.565,359.954"
		/>
	<path fill="none" d="M179.872,358.876c-2.318,0.053-4.652,0.094-6.96,0.157c-0.688,0.011-1.313-0.016-1.872-0.052
		c-2.233-0.105-3.59-0.227-4.489,2.444c-8.068,23.813-16.605,47.637-27.808,70.184c10.287-0.684,20.559-1.356,30.836-2.024
		c1.482-3.106,2.943-6.234,4.353-9.379c-5.813,0.163-11.628,0.332-17.442,0.489c3.008-6.423,5.814-12.963,8.464-19.533
		c0.926-0.574,3.028-0.521,4.757-0.479c0.758,0.021,1.441,0.031,1.914,0.004c3.117-0.22,6.229-0.436,9.352-0.656
		c2.04-0.163,1.993-2.113,2.607-3.863c0.511-1.493,3.701-7.833,1.184-7.654c-5.115,0.353-10.251,0.698-15.372,1.057
		c2.335-6.292,4.521-12.622,6.604-18.978c0.878-0.593,3.228-0.488,5.109-0.383c0.847,0.042,1.599,0.089,2.071,0.063
		c0.762-0.032,1.624,0,2.513,0.03c2.807,0.084,5.893,0.174,7.097-1.645c0.684-3.386,3.385-6.734,4.105-10.12
		C192.115,358.645,184.65,358.755,179.872,358.876"/>
	<linearGradient id="SVGID_1_" gradientUnits="userSpaceOnUse" x1="504.5205" y1="417.1172" x2="496.2845" y2="235.7455">
		<stop  offset="0" style="stop-color:#F04E27"/>
		<stop  offset="0.1685" style="stop-color:#F04E27"/>
		<stop  offset="0.6629" style="stop-color:#FFC91B"/>
		<stop  offset="1" style="stop-color:#FFC91B"/>
	</linearGradient>
	<path fill-rule="evenodd" clip-rule="evenodd" fill="url(#SVGID_1_)" d="M354.866,256.11
		c-4.937,38.63-12.933,76.971-26.326,113.615c-3.097,8.485-6.739,16.723-10.058,25.123c-1.907,4.799-4.047,10.308-3.422,15.575
		c1.067,9.184,12.297,9.016,19.277,8.568c16.838-1.082,33.664-2.171,50.518-3.243c11.339-0.73,24.371,0.048,34.964-4.463
		c16.816-7.155,23.833-30.795,29.885-46.123c13.852-35.053,25.164-71.009,27.966-108.831c-13.837-0.027-27.672-0.053-41.492-0.069
		c-0.069,0-9.059,45.924-10.193,50.225c-4.042,15.275-8.867,30.525-15.633,44.835c-4.227,8.973-9.667,19.976-18.578,25.19
		c-8.558,5.01-19.44,1.535-18.1-9.479c1.037-8.474,6.024-16.811,8.89-24.833c3.433-9.546,6.419-19.261,9.031-29.069
		c4.958-18.709,8.49-37.76,11.123-56.935C386.759,256.176,370.82,256.15,354.866,256.11 M619.398,256.584
		c-4.89,38.265-17.011,75.015-31.925,110.44c-3.338,7.942-13.226,25-3.443,32.329c6.009,4.5,15.366,2.606,22.421,2.145
		c15.438-0.982,31.457-0.946,46.748-3.502c19.892-3.337,32.009-18.056,41.823-34.673c18.778-31.804,35.368-69.337,38.106-106.523
		c-13.541-0.027-27.083-0.053-40.619-0.074c-2.586,0-2.686,9.959-3.133,12.401c-1.503,8.329-3.317,16.601-5.431,24.812
		c-3.848,15.014-8.595,29.938-15.119,44.041c-4.184,9.037-9.272,19.336-17.395,25.501c-6.876,5.22-18.319,4.553-17.604-6.229
		c0.515-7.581,4.758-14.635,7.554-21.568c3.48-8.56,6.75-17.217,9.688-25.965c5.803-17.273,10.346-34.994,12.827-53.048
		C649.072,256.649,634.237,256.613,619.398,256.584 M189.771,428.281c16.659-29.927,28.286-62.436,35.836-95.784
		c4.011-17.794,6.881-35.836,8.831-53.955c0.205-1.998,1.84-22.636,2.023-22.636h4.064c32.303,0.06,64.605,0.12,96.919,0.178h1.551
		c-1.036,8.876-2.365,17.717-4.032,26.49c-0.445,2.325-2.271,16.811-4.268,16.878c-6.829,0.269-13.657,0.537-20.476,0.794
		c-8.08,0.315-16.149,0.638-24.234,0.953c-3.605,0.136-2.985-0.096-3.559,4.068c-1.146,8.263-2.523,16.532-4.521,24.644
		c14.929-0.216,29.858-0.42,44.81-0.642c-2.209,6.497-4.616,12.921-7.198,19.271c-0.939,2.287-6.602,19.142-8.604,19.283
		c-4.773,0.315-9.567,0.646-14.356,0.968c-7.313,0.498-14.641,0.982-21.952,1.482c-1.914,0.136-3.827,0.252-5.741,0.394
		c-1.477,0.089-6.665,15.486-7.568,17.51c-2.939,6.592-6.025,13.116-9.2,19.588c-1.099,2.218-6.965,17.215-8.974,17.348
		c-4.6,0.288-9.199,0.583-13.804,0.877C213.479,426.757,201.614,427.508,189.771,428.281 M482.138,409.493
		c17.258-34.711,30.011-71.766,36.094-110.119c-9.91,0.169-19.819,0.337-29.738,0.51c4.511-13.396,7.802-27.209,9.642-41.226
		c0.462-3.446,2.197-2.276,5.456-2.276c11.969,0.021,23.93,0.048,35.884,0.058c21.526,0.039,43.053,0.092,64.595,0.118
		c-1.135,6.983-2.519,13.915-4.259,20.768c-0.557,2.238-4.803,20.729-6.665,20.759c-5.992,0.1-11.991,0.202-17.993,0.315
		c-2.334,0.028-4.669,0.065-7.007,0.117c-1.084,0.014-4.39,15.334-4.937,17.237c-3.928,13.6-8.485,27.005-13.759,40.137
		c-5.329,13.283-11.363,26.273-18.141,38.878c-1.041,1.925-5.157,11.896-7.138,12.022c-2.071,0.138-4.158,0.269-6.23,0.399
		C506.009,407.959,494.076,408.73,482.138,409.493 M151.512,255.725h19.36c6.383,0,13.963-1.136,20.176,0.386
		c12.406,3.025,9.021,16.333,7.313,25.462c-2.466,13.092-5.667,26.014-9.426,38.803c-3.106,10.624-7.285,22.068-20.107,23.435
		c-6.045,0.647-12.438,0.09-18.52,0.09c-6.854,0-14.172,0.73-20.975-0.1c-13.735-1.693-6.839-17.773-4.552-25.701
		c3.685-12.795,6.817-25.722,9.183-38.813C135.814,268.987,138.013,255.725,151.512,255.725 M157.736,274.909
		c6.261,0,14.219-1.33,20.301,0.184c6.834,1.696,3.002,11.173,2.056,15.59c-1.482,6.899-3.159,13.748-4.988,20.546
		c-1.498,5.551-3.002,13.479-10.414,13.479c-6.213,0-14.267,1.382-20.291-0.18c-6.607-1.702-1.698-11.664-0.662-15.575
		c1.818-6.808,3.438-13.668,4.878-20.555C149.729,283.065,150.382,274.909,157.736,274.909 M59.271,255.591h63.592
		c-0.379,4.799-0.841,9.585-1.383,14.382c-0.269,2.39-0.547,4.787-0.852,7.176h-9.115h-6.834c-3.685,0-3.144,3.514-3.963,6.718
		c-1.341,5.236-2.744,10.459-4.243,15.666c-3.048,10.555-6.603,20.964-10.43,31.272c-0.824,2.239-1.65,4.474-2.507,6.702
		c-1.225,3.259-1.156,6.691-4.958,6.691H61.757c8.448-22.009,15.76-44.157,21.416-67.05H57.052
		C57.951,269.983,58.697,262.787,59.271,255.591 M82.737,435.273c3.496-6.872,6.87-13.837,10.056-20.865
		c1.898-4.189,6.556-8.604,6.556-8.604s12.27-0.862,18.404-1.305c-3.922,9.852-8.07,19.608-12.38,29.292
		c3.616-0.231,7.238-0.479,10.845-0.705c4.841-0.32,8.18-13.657,9.998-17.915c7.723-18.047,14.44-36.55,19.608-55.49
		c-4.085,0.094-8.165,0.193-12.259,0.284c-1.383,0.031-8.643,25.679-9.684,28.502c-1.108,3.049-0.673,4.284-3.643,4.489
		c-2.429,0.157-4.848,0.33-7.276,0.504c-3.926,0.269-7.832,0.531-11.748,0.8c4.216-11.019,7.822-22.29,10.55-33.77
		c-3.91,0.078-7.838,0.178-11.743,0.278c-1.551,0.037-6.534,21.105-7.501,23.955c-5.982,17.679-13.699,34.716-22.138,51.369
		C74.51,435.819,78.616,435.542,82.737,435.273 M42.07,362.129c13.689-0.315,27.378-0.646,41.071-0.977
		c-0.673,4.631-1.977,9.235-3.406,13.678c-1.057,0.889-6.219,0.273-7.575,0.331c-3.375,0.147-5.998-0.962-6.918,2.486
		c-1.766,6.646-3.821,13.199-6.155,19.671c-4.474,12.479-9.873,24.618-15.84,36.456c-2.491,4.937-2.927,4.29-8.126,4.631
		c-2.224,0.152-4.405,0.232-6.634,0.232c10.393-19.95,19.313-40.819,24.911-62.646c-5.54,0.243-11.081,0.484-16.627,0.727
		C38.538,371.855,40.304,366.997,42.07,362.129 M169.579,429.585c-10.271,0.668-20.554,1.341-30.836,2.024
		c11.202-22.553,19.744-46.366,27.803-70.184c1.131-3.354,2.976-2.318,6.361-2.393c2.313-0.058,4.642-0.104,6.965-0.157
		c4.778-0.121,12.243-0.231,17.026-0.343c-0.73,3.392-3.433,6.74-4.116,10.131c-1.587,2.392-6.438,1.478-9.608,1.609
		c-1.499,0.058-5.909-0.548-7.171,0.319c-2.098,6.355-4.279,12.686-6.603,18.973c5.115-0.354,10.245-0.705,15.371-1.063
		c2.507-0.163-0.668,6.172-1.183,7.665c-0.62,1.75-0.573,3.711-2.613,3.858c-3.122,0.221-6.229,0.441-9.352,0.657
		c-1.545,0.109-5.336-0.358-6.676,0.473c-2.649,6.581-5.446,13.116-8.459,19.539c5.81-0.157,11.629-0.33,17.438-0.483
		C172.533,423.355,171.067,426.479,169.579,429.585 M830.459,374.199c16.738-27.43,28.402-57.661,36.377-88.724
		c2.033-7.936,3.838-15.939,5.43-23.992c0.584-2.906-0.279-4.439,2.444-4.439c5.215,0.01,10.43,0.017,15.649,0.031
		c27.956,0.047,55.928,0.098,83.91,0.145c-2.035,6.655-4.259,13.263-6.672,19.783c-0.72,1.965-4.647,15.196-6.334,15.232
		c-5.11,0.076-10.219,0.169-15.328,0.25c-12.039,0.192-24.082-0.065-36.126,0.129c2.218,1.561-4.315,18.324-5.267,21.032
		c11.323-0.184,22.636-0.368,33.953-0.552c-1.93,5.063-4.09,10.04-6.514,14.897c-0.698,1.388-4.268,10.178-5.766,10.22
		c-4.889,0.178-9.768,0.347-14.65,0.51c-5.73,0.199-11.449,0.395-17.18,0.589c-2.708,0.104-3.259,3.427-4.563,5.562
		c-2.827,4.684-6.791,9.042-9.184,13.93c15.156-0.521,30.301-1.051,45.455-1.561c-4.488,6.544-9.183,12.958-14.057,19.214
		c-1.849,2.37-4.763,5.813-4.763,5.813s-12.704,0.715-18.373,1.083c-16.778,1.083-33.559,2.155-50.332,3.238
		c-21.469,1.383-42.943,2.76-64.416,4.132c5.402-9.684,7.632-20.55-0.574-29.349c-1.23-1.314-2.564-2.524-3.969-3.622
		c-2.155,0.311-4.321,0.578-6.482,0.831c-4.667,0.535-5.166,0.21-7.479,4.552c-4.732,8.863-9.83,17.51-15.276,25.947
		c-2.77,4.285-2.586,3.985-7.145,4.274c-4.348,0.278-8.705,0.567-13.052,0.846c-7.107,0.447-14.216,0.915-21.306,1.367
		c17.92-30,32.266-62.066,42.758-95.4c2.666-8.479,5.084-17.024,7.28-25.624c0.631-2.526,3.223-17.716,4.773-17.716
		c7.822,0.016,15.65,0.026,23.477,0.037c11.113,0.026,22.242,0.056,33.376,0.066c11.16,0.025,23.523-1.305,32.024,7.351
		c11.57,11.752,5.488,28.133,0.321,41.584c-4.9,12.779-9.567,25.653-20.901,34.144c-7.117,5.335-15.696,9.1-24.155,11.749
		c13.772,4.063,23.276,15.649,28.64,28.565C827.804,378.278,829.134,376.245,830.459,374.199 M772.96,325.364
		c3.858-9.989,7.259-20.16,10.161-30.467c5.482-0.933,20.145-2.72,20.717,5.696c0.447,6.545-4.936,15.702-9.583,20.044
		c-4.373,4.08-10.146,4.894-15.907,4.894C776.539,325.531,774.73,325.453,772.96,325.364"/>
	<path fill="none" d="M748.899,274.538c-2.192,8.614-4.604,17.15-7.271,25.63c-10.492,33.328-24.843,65.395-42.758,95.391
		c7.097-0.447,14.193-0.91,21.306-1.362c4.342-0.279,8.704-0.552,13.052-0.836c4.559-0.294,4.375,0.011,7.139-4.279
		c5.452-8.432,10.55-17.09,15.272-25.942c2.323-4.352,2.822-4.017,7.489-4.552c2.161-0.264,4.327-0.525,6.482-0.836
		c1.408,1.104,2.749,2.308,3.963,3.627c8.217,8.794,5.988,19.649,0.595,29.349c21.453-1.382,42.927-2.76,64.396-4.137
		c16.785-1.083,33.564-2.149,50.345-3.233c5.666-0.368,18.366-1.082,18.366-1.082s2.914-3.438,4.773-5.825
		c4.868-6.25,9.563-12.658,14.046-19.208c-15.154,0.51-30.299,1.04-45.449,1.561c2.387-4.883,6.351-9.252,9.174-13.925
		c1.303-2.134,1.865-5.473,4.572-5.566c5.726-0.194,11.444-0.385,17.175-0.584c4.883-0.168,9.756-0.347,14.65-0.515
		c1.498-0.048,5.062-8.837,5.766-10.225c2.43-4.853,4.58-9.836,6.52-14.889c-11.323,0.18-22.625,0.358-33.959,0.548
		c0.945-2.708,7.48-19.477,5.273-21.038c6.008-0.098,12.031-0.073,18.056-0.058c6.024,0.017,12.043,0.031,18.067-0.065
		c5.105-0.087,10.214-0.171,15.328-0.242c1.678-0.042,5.61-13.273,6.33-15.244c2.418-6.519,4.631-13.124,6.666-19.782
		c-27.973-0.05-55.948-0.091-83.904-0.139c-5.214-0.018-10.435-0.028-15.654-0.034c-2.719,0-1.851,1.529-2.439,4.447
		c-1.599,8.043-3.4,16.047-5.436,23.986c-7.975,31.056-19.64,61.297-36.367,88.722c-1.329,2.046-2.653,4.079-4.005,6.129
		c-5.357-12.92-14.851-24.512-28.639-28.569c8.458-2.645,17.043-6.414,24.154-11.755c11.34-8.484,16.003-21.368,20.901-34.138
		c5.173-13.462,11.255-29.837-0.305-41.58c-7.501-7.629-17.994-7.505-28.009-7.387c-1.355,0.021-2.701,0.032-4.026,0.032
		c-11.134-0.011-22.263-0.038-33.376-0.064c-7.821-0.01-15.654-0.023-23.48-0.033C752.132,256.834,749.536,272.021,748.899,274.538"
		/>
	<path fill="none" d="M587.469,367.013c-3.338,7.949-13.221,25.012-3.443,32.341c6.014,4.5,15.371,2.612,22.431,2.155
		c15.429-0.999,31.445-0.963,46.738-3.521c19.896-3.323,32.009-18.047,41.823-34.664c18.783-31.804,35.373-69.339,38.117-106.527
		c-13.547-0.025-27.089-0.04-40.625-0.081c-2.586,0-2.686,9.965-3.139,12.408c-1.497,8.333-3.316,16.607-5.415,24.815
		c-3.863,15.008-8.609,29.948-15.129,44.047c-4.184,9.036-9.267,19.33-17.388,25.495c-6.883,5.22-18.326,4.548-17.611-6.234
		c0.51-7.575,4.752-14.629,7.564-21.573c3.47-8.549,6.739-17.2,9.673-25.954c5.808-17.271,10.346-34.991,12.837-53.045
		c-14.834-0.021-29.665-0.061-44.499-0.088C614.509,294.843,602.382,331.599,587.469,367.013"/>
	<path fill="none" d="M498.129,258.66c-1.84,14.018-5.131,27.83-9.642,41.229c9.921-0.178,19.84-0.346,29.738-0.515
		c-6.066,38.354-18.819,75.408-36.082,110.125c11.933-0.769,23.865-1.54,35.794-2.309c2.076-0.136,4.163-0.262,6.228-0.399
		c1.987-0.121,6.11-10.093,7.14-12.017c6.782-12.605,12.816-25.596,18.146-38.89c5.273-13.126,9.837-26.531,13.759-40.136
		c0.551-1.898,3.848-17.219,4.937-17.234c2.344-0.047,4.673-0.087,7.007-0.117c5.998-0.114,11.99-0.211,17.993-0.319
		c1.862-0.026,6.104-18.511,6.661-20.756c1.751-6.858,3.121-13.792,4.263-20.762c-21.542-0.032-43.068-0.087-64.595-0.124
		c-11.954-0.011-23.915-0.026-35.884-0.061c-1.314,0-2.381-0.187-3.218-0.187C499.139,256.189,498.408,256.603,498.129,258.66"/>
	<path fill="none" d="M328.544,369.726c-3.106,8.485-6.743,16.728-10.065,25.117c-1.893,4.805-4.043,10.309-3.423,15.581
		c1.072,9.189,12.302,9.021,19.282,8.568c16.842-1.088,33.669-2.171,50.513-3.243c11.344-0.726,24.376,0.053,34.969-4.463
		c16.806-7.155,23.823-30.799,29.885-46.118c13.852-35.058,25.158-71.014,27.966-108.834c-13.841-0.025-27.672-0.055-41.497-0.076
		c-0.064,0-9.043,45.935-10.188,50.229c-4.048,15.275-8.867,30.525-15.633,44.835c-4.231,8.968-9.663,19.97-18.578,25.19
		c-8.558,5.01-19.44,1.539-18.1-9.483c1.037-8.469,6.024-16.806,8.9-24.834c3.428-9.535,6.403-19.255,9.015-29.059
		c4.964-18.72,8.496-37.763,11.135-56.932c-15.961-0.033-31.903-0.06-47.863-0.091C349.924,294.735,341.934,333.092,328.544,369.726
		"/>
	<path fill="none" d="M236.456,255.908c-0.173,0-1.813,20.633-2.023,22.636c-1.94,18.126-4.815,36.164-8.831,53.959
		c-7.55,33.343-19.172,65.857-35.836,95.778c11.849-0.773,23.713-1.524,35.552-2.292c4.6-0.289,9.21-0.589,13.804-0.877
		c2.014-0.144,7.869-15.13,8.968-17.343c3.181-6.477,6.262-12.995,9.199-19.593c0.905-2.023,6.099-17.416,7.571-17.516
		c1.923-0.125,3.826-0.252,5.745-0.388c7.312-0.506,14.64-0.989,21.952-1.488c4.789-0.315,9.578-0.652,14.361-0.968
		c1.992-0.136,7.664-16.979,8.6-19.277c2.577-6.35,4.994-12.768,7.188-19.271c-14.936,0.227-29.87,0.432-44.804,0.642
		c2.008-8.106,3.374-16.381,4.525-24.639c0.573-4.169-0.047-3.942,3.559-4.079c8.074-0.31,16.149-0.625,24.234-0.947
		c6.823-0.257,13.646-0.521,20.476-0.788c1.997-0.073,3.826-14.556,4.263-16.882c1.677-8.773,3.001-17.612,4.047-26.489h-1.555
		c-32.313-0.065-64.616-0.112-96.925-0.179H236.456z"/>
	<path fill="none" d="M59.275,255.585c-0.572,7.208-1.319,14.396-2.218,21.563h26.115c-5.656,22.893-12.973,45.041-21.411,67.05
		h16.812c3.801,0,3.732-3.437,4.968-6.691c0.847-2.224,1.683-4.458,2.508-6.707c3.816-10.309,7.376-20.717,10.424-31.273
		c1.499-5.199,2.896-10.416,4.237-15.66c0.825-3.206,0.284-6.718,3.969-6.718h6.834h9.11c0.31-2.389,0.594-4.789,0.861-7.181
		c0.537-4.79,0.993-9.58,1.378-14.383H59.275z"/>
	<path fill="none" d="M144.399,324.527c-6.603-1.702-1.698-11.664-0.657-15.581c1.818-6.797,3.438-13.651,4.878-20.551
		c1.114-5.336,1.762-13.492,9.11-13.492c6.261,0,14.23-1.327,20.302,0.189c6.834,1.689,3.007,11.177,2.056,15.59
		c-1.478,6.896-3.159,13.743-4.983,20.546c-1.509,5.546-3.002,13.483-10.414,13.483c-3.969,0-8.689,0.563-13.152,0.563
		C149.015,325.274,146.581,325.091,144.399,324.527"/>
	<path fill="none" d="M170.867,255.72h-19.351c-13.499,0-15.696,13.265-17.558,23.563c-2.36,13.089-5.493,26.021-9.178,38.811
		c-2.287,7.933-9.184,24.013,4.547,25.706c6.797,0.825,14.135,0.1,20.979,0.1c6.082,0,12.47,0.558,18.52-0.09
		c12.822-1.36,17.006-12.811,20.113-23.435c3.748-12.789,6.959-25.703,9.425-38.8c1.698-9.124,5.094-22.441-7.317-25.461
		c-2.502-0.616-5.22-0.797-7.995-0.797C178.926,255.317,174.684,255.72,170.867,255.72"/>
	<path fill="none" d="M980.183,201.057c3.05,0.042,7.454,0.102,10.498,0.139c-6.776-18.184-15.76-35.534-26.726-51.545
		c-5.74-8.376-12.012-16.37-18.709-23.992c-2.388-2.687-3.465-4.894-7.002-5.157c-2.371-0.179-4.752-0.357-7.123-0.518
		C951.975,144.165,968.133,171.44,980.183,201.057"/>
	<path fill="none" d="M946.003,200.508c4.026,0.065,6.714,0.128,10.75,0.189c-9.009-20.812-19.051-41.276-31.967-59.972
		c-3.312-4.802-6.813-9.497-10.486-14.028c-1.852-2.26-5.305-8.355-8.307-8.57c-4.673-0.345-9.372-0.7-14.062-1.039
		C913.774,141.844,933.465,169.921,946.003,200.508"/>
	<path fill="none" d="M903.549,199.905c7.797,0.108,15.598,0.231,23.383,0.34c-12.228-22.513-25.8-44.368-41.817-64.415
		c-3.766-4.726-7.66-9.328-11.703-13.828c-2.574-2.852-4.51-6.6-8.473-6.889c-5.399-0.405-10.798-0.799-16.196-1.191
		C871.54,139.313,890.649,168.242,903.549,199.905"/>
	<path fill="none" d="M862.982,199.295c7.634,0.108,15.271,0.227,22.915,0.339c-13.164-24.249-27.866-47.745-45.478-69.035
		c-4.3-5.223-8.79-10.309-13.44-15.213c-3.187-3.375-3.486-3.333-7.755-3.632c-5.735-0.431-11.448-0.846-17.164-1.272
		C825.201,138.022,845.478,167.886,862.982,199.295"/>
	<path fill="none" d="M680.077,110.301c-1.787,6.087-3.574,12.175-5.356,18.259c-0.968,3.267-3.601,6.937-0.279,8.595
		c47.995,24.018,92.562,54.54,134.97,87.289c-5.437-8.871-11.088-17.613-16.96-26.208c17.459,0.263,30.406,0.521,47.849,0.78
		c-13.815-21.069-24.382-41.332-40.799-60.424c-8.495-9.894-17.357-19.472-26.547-28.718c-2.522-2.531-5.656-1.948-9.193-2.208
		c-12.953-0.951-25.911-1.895-38.869-2.852c-4.168-0.307-8.332-0.621-12.501-0.925c-2.754-0.189-5.877-4.689-7.874-6.481
		c-5.414-4.839-10.923-9.578-16.518-14.19C685.355,92.251,682.705,101.272,680.077,110.301"/>
	<path fill="none" d="M364.028,45.666c-5.893,3.801-7.171,11.032-6.623,17.55c0.799,9.873,5.167,17.581,8.773,26.447
		c10.15,24.949,18.997,50.523,27.519,76.087c7.923,23.777,12.696,53.454,38.021,65.118c8.518,3.904,16.597,3.988,25.654,4.006
		c57.583,0.096,115.171,0.208,172.765,0.306c-4.021-18.851-8.968-37.507-15.035-55.803c23.651,9.882,45.261,24.636,66.631,38.616
		c6.765,4.418,13.505,8.871,20.28,13.273c2.051,1.346,4.537,4.043,7.097,4.053c3.828,0,7.648,0.019,11.471,0.023
		c22.714,0.043,45.435,0.074,68.155,0.13c-32.473-25.953-66.347-50.526-102.961-70.344c-8.931-4.836-18.036-9.383-27.309-13.555
		c-2.607-1.169-5.226-2.32-7.864-3.43c-2.86-1.188-4.315-0.495-3.206-3.879c1.472-4.508,2.896-9.05,4.268-13.6
		c6.01-19.884,11.081-40.043,15.698-60.312c-14.468-1.382-28.939-2.77-43.423-4.161c-2.911-0.273-5.813-0.56-8.731-0.828
		c-3.074-0.303-4.047,10.782-4.783,13.523c-4.489,16.929-9.583,33.696-15.576,50.152c-8.352-17.35-18.009-34.059-29.018-49.858
		c-2.791-4.021-5.677-7.982-8.657-11.865c-0.982-1.295-4.941-7.988-6.434-8.137c-2.099-0.184-4.206-0.399-6.31-0.61
		c-15.645-1.479-31.277-2.986-46.938-4.484c27.445,41.86,49.282,85.915,61.188,134.737c-3.732-0.205-7.463-0.355-11.196-0.468
		c-16.369-0.518-32.729-0.339-49.094-0.518c-10.161-0.123-21.441,0.216-30.988-3.864c-9.042-3.866-13.636-18.63-17.332-26.765
		c-6.665-14.701-14.666-29.622-20.038-44.796c-2.766-7.817-1.546-15.844,7.521-17.616c3.274-0.628,6.635-0.294,9.936-0.16
		c15.266,0.575,30.563,1.151,45.834,1.727c-8.001-15.905-16.554-31.302-27.588-45.325c-21.483-2.061-42.995-4.116-64.479-6.184
		c-6.634-0.628-15.192-2.589-23.135-2.589C372.938,42.265,368.013,43.105,364.028,45.666"/>
	<path fill="none" d="M189.702,34.89c-2.387,3.096-2.707,7.068-1.945,10.797c1.52,7.446,4.632,14.803,7.013,22.002
		c5.81,17.563,11.607,35.123,16.675,52.93c10.477,36.964,16.228,75.054,20.181,113.218c0.158,1.514,24.418,1.228,40.462,0.949
		c6.466-0.124,11.592-0.231,13.269-0.231c-1.336-16.235-4.358-32.421-7.922-48.302c11.938,0.252,23.892,0.504,35.818,0.749
		c4.69,0.103,9.343,0.192,14.016,0.295c1.052,0.029,5.33,17.026,5.939,19.003c1.651,5.354,3.308,10.695,4.942,16.063
		c0.246,0.807,3.111,12.3,3.784,12.3c4.595,0,9.185,0.016,13.773,0.026c12.217,0.021,24.412,0.036,36.623,0.058
		c-16.348-69.757-43.526-139.423-84.065-198.786c-28.009-2.686-56.012-5.377-84.015-8.059c-3.559-0.333-7.858-0.738-12.265-0.738
		C203.438,27.165,194.491,28.658,189.702,34.89"/>
	<linearGradient id="SVGID_2_" gradientUnits="userSpaceOnUse" x1="503.042" y1="22.0591" x2="496.3551" y2="247.3642">
		<stop  offset="0" style="stop-color:#F04E27"/>
		<stop  offset="0.1685" style="stop-color:#F04E27"/>
		<stop  offset="0.6629" style="stop-color:#FFC91B"/>
		<stop  offset="1" style="stop-color:#FFC91B"/>
	</linearGradient>
	<path fill-rule="evenodd" clip-rule="evenodd" fill="url(#SVGID_2_)" d="M465.736,51.038c11.029,14.028,19.587,29.412,27.583,45.33
		c-15.276-0.586-30.558-1.157-45.829-1.729c-3.312-0.134-6.661-0.478-9.936,0.158c-9.067,1.766-10.281,9.796-7.521,17.613
		c5.372,15.174,13.367,30.095,20.038,44.796c3.696,8.146,8.285,22.901,17.332,26.765c9.54,4.08,20.822,3.745,30.983,3.864
		c16.369,0.184,32.729,0,49.099,0.523c3.727,0.113,7.471,0.257,11.202,0.462c-11.907-48.828-33.754-92.872-61.189-134.729
		c15.649,1.496,31.288,2.994,46.928,4.479c2.113,0.215,4.222,0.42,6.314,0.612c1.497,0.147,5.451,6.842,6.434,8.135
		c2.969,3.885,5.861,7.849,8.657,11.87c11.003,15.794,20.67,32.505,29.018,49.845c5.987-16.451,11.076-33.223,15.576-50.142
		c0.736-2.739,1.713-13.823,4.783-13.529c2.913,0.281,5.825,0.56,8.737,0.831c14.478,1.388,28.949,2.778,43.417,4.166
		c-4.617,20.263-9.688,40.42-15.698,60.312c-1.366,4.547-2.791,9.081-4.268,13.591c-1.109,3.391,0.356,2.692,3.211,3.888
		c2.63,1.114,5.247,2.255,7.854,3.428c9.278,4.166,18.389,8.711,27.314,13.554c36.625,19.816,70.495,44.389,102.961,70.338
		c-22.716-0.047-45.441-0.086-68.155-0.117c-3.833-0.011-7.648-0.026-11.471-0.026c-2.56-0.011-5.046-2.707-7.097-4.048
		c-6.775-4.416-13.516-8.86-20.28-13.286c-21.37-13.978-42.979-28.729-66.642-38.611c6.073,18.291,11.024,36.955,15.042,55.796
		c-57.584-0.093-115.183-0.205-172.761-0.303c-9.052-0.016-17.133-0.098-25.658-4.011c-25.312-11.649-30.095-41.33-38.018-65.113
		c-8.521-25.562-17.368-51.13-27.524-76.092c-3.606-8.86-7.969-16.564-8.773-26.437c-0.536-6.519,0.73-13.751,6.634-17.552
		c10.094-6.508,26.253-1.858,37.224-0.807C422.746,46.919,444.247,48.976,465.736,51.038 M308.254,35.959
		c-27.998-2.676-56.006-5.373-84.004-8.059c-10.467-0.996-27.294-2.455-34.553,6.989c-2.382,3.099-2.702,7.068-1.94,10.797
		c1.524,7.444,4.637,14.798,7.008,22c5.814,17.571,11.617,35.129,16.68,52.941c10.477,36.956,16.228,75.043,20.181,113.204
		c0.216,2.122,47.916,0.711,53.725,0.727c-1.33-16.241-4.348-32.427-7.916-48.313c11.943,0.26,23.886,0.512,35.814,0.754
		c4.684,0.103,9.352,0.206,14.02,0.297c1.052,0.026,5.33,17.032,5.935,19c1.661,5.356,3.307,10.703,4.952,16.062
		c0.241,0.81,3.106,12.3,3.779,12.3c4.595,0,9.174,0.017,13.773,0.026c12.211,0.029,24.417,0.039,36.629,0.066
		C375.987,164.99,348.804,95.324,308.254,35.959 M10.514,7.441c30.374,2.902,60.742,5.814,91.101,8.711
		c11.481,1.112,22.819,3.12,33.701,7.11c10.397,3.811,19.009,8.999,23.524,19.405c5.877,13.518,12.363,27.551,14.835,42.181
		c1.734,10.267-2.267,22.055-13.353,25.09c20.423,6.238,28.691,24.799,33.77,43.758c3.275,12.188,5.666,24.741,6.471,37.347
		c0.578,8.758,1.277,20.68-4.348,28.158c-9.482,12.574-30.609,15.142-45.282,15.121c-15.191-0.031-30.373-0.061-45.56-0.081
		c-15.813-0.026-31.614-0.063-47.448-0.093c-0.51,0-2.397,0.319-2.839,0c-0.483-9.436-1.057-18.85-1.739-28.26
		c-1.257-17.166-2.876-34.311-5-51.396C42.16,104.437,32.324,53.299,10.514,7.441 M980.188,201.054
		c3.048,0.055,7.443,0.103,10.497,0.142c-6.775-18.186-15.765-35.528-26.73-51.548c-5.74-8.377-12.007-16.37-18.709-23.992
		c-2.388-2.686-3.465-4.899-7.002-5.151c-2.376-0.184-4.748-0.35-7.129-0.528C951.97,144.163,968.129,171.438,980.188,201.054
		 M946.003,200.51c4.032,0.061,6.714,0.126,10.739,0.185c-9.005-20.804-19.04-41.271-31.956-59.973
		c-3.312-4.799-6.813-9.494-10.486-14.027c-1.845-2.255-5.305-8.353-8.312-8.568c-4.679-0.339-9.367-0.694-14.063-1.039
		C913.774,141.847,933.471,169.916,946.003,200.51 M903.544,199.903c7.802,0.108,15.603,0.231,23.392,0.344
		c-12.236-22.517-25.804-44.373-41.821-64.411c-3.77-4.731-7.665-9.333-11.696-13.836c-2.571-2.852-4.517-6.587-8.479-6.884
		c-5.399-0.404-10.793-0.801-16.191-1.19C871.54,139.313,890.653,168.251,903.544,199.903 M862.978,199.29
		c7.632,0.113,15.275,0.232,22.92,0.345c-13.169-24.247-27.866-47.748-45.478-69.043c-4.305-5.217-8.79-10.297-13.437-15.208
		c-3.186-3.375-3.495-3.325-7.764-3.632c-5.725-0.431-11.443-0.839-17.159-1.265C825.207,138.02,845.473,167.881,862.978,199.29
		 M687.999,83.223c-2.644,9.026-5.294,18.05-7.927,27.076c-1.793,6.082-3.569,12.183-5.347,18.259
		c-0.962,3.273-3.605,6.939-0.277,8.598c47.994,24.023,92.562,54.54,134.967,87.294c-5.44-8.87-11.081-17.613-16.958-26.21
		c17.453,0.261,30.4,0.519,47.837,0.781c-13.81-21.075-24.37-41.33-40.798-60.43c-8.484-9.893-17.353-19.469-26.542-28.718
		c-2.522-2.528-5.656-1.948-9.193-2.2c-12.958-0.954-25.911-1.905-38.864-2.854c-4.173-0.308-8.337-0.623-12.511-0.93
		c-2.749-0.195-5.872-4.689-7.875-6.482C699.103,92.567,693.587,87.841,687.999,83.223 M265.763,144.052
		c-5.535-17.179-11.028-34.526-18.099-51.143c-2.371-5.578-6.351-13.678,0.226-17.992c4.542-2.98,10.902-2.137,15.997-2.061
		c5.015,0.074,10.019,0.206,15.013,0.565c4.405,0.3,4.736-0.173,6.55,3.643c10.661,22.563,20.365,45.653,28.66,69.193
		C297.992,145.526,281.875,144.783,265.763,144.052 M103.653,151.07c-1.645-7.104-3.501-14.172-5.451-21.203
		c9.468,0.458,18.956,0.841,28.435,1.083c8.363,0.221,13.757,5.107,16.869,12.584c3.858,9.328,11.57,32.91-6.172,31.614
		c-9.468-0.699-19.155-0.086-28.649-0.086C107.597,175.062,104.164,153.277,103.653,151.07 M88.998,97.419
		c-2.918,0-5.651-18.82-6.313-21.661c-2.202-9.459-5.036-18.639-8.911-27.546c8.869,0.828,17.753,1.072,26.632,1.669
		c7.254,0.495,14.035,2.815,18.93,8.461c7.097,8.167,17.479,36.453-0.563,38.969c-3.396,0.462-6.896,0.623-10.435,0.623
		C101.866,97.934,95.274,97.419,88.998,97.419"/>
	<path fill="none" d="M48.347,154.495c2.124,17.079,3.743,34.234,5,51.39c0.678,9.409,1.256,18.834,1.739,28.265
		c0.447,0.318,2.334,0,2.85,0c15.817,0.026,31.625,0.061,47.432,0.087c15.192,0.021,30.369,0.053,45.565,0.082
		c14.673,0.026,35.8-2.553,45.288-15.121c5.614-7.473,4.92-19.395,4.337-28.153c-0.794-12.608-3.196-25.167-6.461-37.352
		c-5.083-18.954-13.352-37.516-33.78-43.755c11.087-3.036,15.093-14.818,13.353-25.083c-2.471-14.643-8.952-28.67-14.829-42.191
		c-4.521-10.411-13.121-15.588-23.524-19.4c-10.882-3.99-22.215-5.999-33.695-7.107c-30.364-2.902-60.732-5.814-91.106-8.713
		C32.319,53.289,42.16,104.437,48.347,154.495"/>
	<polygon points="925.732,381.597 923.151,381.586 923.635,380.76 929.933,380.775 929.449,381.601 926.842,381.601 
		922.946,388.367 921.828,388.36 	"/>
	<path d="M935.6,385.049c0.542-1.056,1.209-2.323,1.761-3.274h-0.041c-0.805,0.888-1.71,1.851-2.734,2.881l-3.638,3.685
		l-0.836-0.005l0.705-3.627c0.215-1.067,0.452-2.051,0.74-2.939h-0.031c-0.557,0.946-1.377,2.213-2.104,3.36l-2.112,3.242h-1.041
		l4.983-7.596l1.403,0.006l-0.683,3.679c-0.179,0.942-0.379,1.772-0.615,2.561h0.032c0.656-0.768,1.445-1.593,2.382-2.561
		l3.643-3.668h1.397l-3.869,7.601l-1.062-0.005L935.6,385.049z"/>
</g>
</svg>
